<svg width="40" height="38" fill="none" xmlns="http://www.w3.org/2000/svg"><path fill-rule="evenodd" clip-rule="evenodd" d="M20.05.75C9.49.75.93 9.12.93 19.45c0 8.26 5.48 15.27 13.08 17.75.95.17 1.3-.4 1.3-.9l-.02-3.18c-5.32 1.13-6.45-2.51-6.45-2.51-.86-2.16-2.12-2.74-2.12-2.74-1.73-1.16.14-1.13.14-1.13 1.92.13 2.92 1.93 2.92 1.93 1.7 2.85 4.48 2.03 5.56 1.55.18-1.21.68-2.04 1.22-2.5-4.24-.47-8.7-2.08-8.7-9.25 0-2.03.74-3.7 1.96-5.01A6.6 6.6 0 0 1 10 8.5s1.6-.5 5.25 1.91a18.75 18.75 0 0 1 9.57 0C28.48 8 30.1 8.51 30.1 8.51a6.56 6.56 0 0 1 .19 4.95 7.11 7.11 0 0 1 1.96 5.01c0 7.2-4.47 8.77-8.73 9.23.69.58 1.3 1.72 1.3 3.46l-.02 5.14c0 .5.34 1.08 1.31.9a18.75 18.75 0 0 0 13.07-17.75C39.17 9.12 30.6.75 20.05.75Z" fill="#CCC"/></svg>