<svg width="35" height="35" fill="none" xmlns="http://www.w3.org/2000/svg"><path d="M34.28 10.57a12.25 12.25 0 0 0-.79-4.15 8.65 8.65 0 0 0-4.94-4.94c-1.3-.5-2.7-.76-4.1-.79-1.8-.08-2.37-.1-6.95-.1s-5.17 0-6.96.1c-1.4.03-2.78.3-4.1.79a8.64 8.64 0 0 0-4.93 4.94c-.5 1.3-.76 2.7-.79 4.1a120 120 0 0 0-.1 6.95c0 4.58 0 5.16.1 6.96.03 1.4.3 2.78.79 4.1a8.64 8.64 0 0 0 4.94 4.93c1.3.51 2.7.8 4.1.85 1.8.08 2.37.1 6.95.1s5.17 0 6.96-.1c1.4-.03 2.79-.3 4.1-.79a8.65 8.65 0 0 0 4.93-4.94c.5-1.3.76-2.7.79-4.1.08-1.8.1-2.37.1-6.95s0-5.16-.1-6.96Zm-16.8 15.56a8.67 8.67 0 1 1 0-17.33 8.67 8.67 0 0 1 0 17.33Zm9.02-15.64a2.02 2.02 0 1 1 0-4.04 2.02 2.02 0 0 1 0 4.04Z" fill="#CCC"/><path d="M17.49 23.1a5.63 5.63 0 1 0 0-11.27 5.63 5.63 0 0 0 0 11.26Z" fill="#CCC"/></svg>