<svg width="92" height="92" fill="none" xmlns="http://www.w3.org/2000/svg"><path d="M71.573 23c1.97 0 3.859.779 5.252 2.165A7.372 7.372 0 0 1 79 30.39v31.22c0 1.96-.782 3.84-2.175 5.225A7.446 7.446 0 0 1 71.573 69H20.427a7.461 7.461 0 0 1-5.252-2.165A7.357 7.357 0 0 1 13 61.61V30.39c0-1.96.783-3.84 2.175-5.226A7.446 7.446 0 0 1 20.427 23h51.146Zm0 4.927H20.427c-.657 0-1.286.26-1.75.721a2.457 2.457 0 0 0-.726 1.742v31.22a2.47 2.47 0 0 0 2.476 2.463h51.146c.657 0 1.287-.26 1.75-.721a2.457 2.457 0 0 0 .726-1.742V30.39c0-.653-.26-1.28-.725-1.742a2.482 2.482 0 0 0-1.75-.721ZM28.68 54.203h34.659c.627 0 1.23.237 1.689.663a2.458 2.458 0 0 1-1.353 4.241l-.336.023H28.679a2.482 2.482 0 0 1-1.69-.663 2.459 2.459 0 0 1-.23-3.355c.396-.484.962-.8 1.583-.886l.337-.023h34.659-34.659Zm32.183-11.496c.875 0 1.715.346 2.334.962a3.276 3.276 0 0 1 0 4.645 3.309 3.309 0 0 1-4.668 0 3.276 3.276 0 0 1 0-4.645 3.309 3.309 0 0 1 2.334-.962Zm-19.788 0a3.31 3.31 0 0 1 2.334.962 3.276 3.276 0 0 1 0 4.645 3.309 3.309 0 0 1-4.668 0 3.276 3.276 0 0 1 0-4.645 3.309 3.309 0 0 1 2.334-.962Zm-9.903 0c.876 0 1.715.346 2.334.962a3.276 3.276 0 0 1 0 4.645 3.309 3.309 0 0 1-4.668 0 3.276 3.276 0 0 1 0-4.645 3.31 3.31 0 0 1 2.334-.962Zm19.805 0a3.31 3.31 0 0 1 2.334.962 3.276 3.276 0 0 1 0 4.645 3.31 3.31 0 0 1-4.668 0 3.276 3.276 0 0 1 0-4.645 3.309 3.309 0 0 1 2.334-.962Zm-24.773-9.853a3.31 3.31 0 0 1 2.335.962 3.277 3.277 0 0 1 0 4.645 3.31 3.31 0 0 1-4.669 0 3.276 3.276 0 0 1 0-4.645 3.31 3.31 0 0 1 2.334-.962Zm9.886 0a3.31 3.31 0 0 1 2.334.962 3.276 3.276 0 0 1 0 4.645 3.309 3.309 0 0 1-4.668 0 3.276 3.276 0 0 1 0-4.645 3.31 3.31 0 0 1 2.334-.962Zm9.903 0a3.31 3.31 0 0 1 2.334.962 3.277 3.277 0 0 1 0 4.645 3.309 3.309 0 0 1-4.668 0 3.276 3.276 0 0 1 0-4.645 3.31 3.31 0 0 1 2.334-.962Zm9.902 0a3.31 3.31 0 0 1 2.334.962 3.277 3.277 0 0 1 0 4.645 3.309 3.309 0 0 1-4.668 0 3.276 3.276 0 0 1 0-4.645 3.31 3.31 0 0 1 2.334-.962Zm9.903 0a3.31 3.31 0 0 1 2.334.962 3.277 3.277 0 0 1 0 4.645 3.31 3.31 0 0 1-4.668 0 3.276 3.276 0 0 1 0-4.645 3.31 3.31 0 0 1 2.334-.962Z" fill="#EC7979"/><circle cx="46" cy="46" r="45.5" stroke="#EC7979"/></svg>