<svg width="92" height="92" fill="none" xmlns="http://www.w3.org/2000/svg"><path d="M36.73 78.811a2.329 2.329 0 0 1-1.118-1.018 2.394 2.394 0 0 1-.27-1.504l4.212-27.931H28.376a2.278 2.278 0 0 1-1.028-.215 2.319 2.319 0 0 1-.83-.655 2.401 2.401 0 0 1-.456-2.03l6.943-30.642c.122-.527.419-.996.84-1.327.422-.33.942-.503 1.474-.488h23.142a2.28 2.28 0 0 1 1 .227c.313.151.588.372.806.645a2.4 2.4 0 0 1 .463 2.004l-4.004 18.338h10.992c.434-.001.86.122 1.228.356.368.233.664.567.855.964a2.397 2.397 0 0 1-.254 2.357l-30.085 40.07a2.33 2.33 0 0 1-.793.742c-.317.18-.672.282-1.036.296a2.483 2.483 0 0 1-.902-.189ZM50.94 38.93l4.629-21.214H37.17l-5.878 25.928H44.97l-3.68 24.231 21.8-28.945H50.94Z" fill="#EC7979"/><circle cx="46" cy="46" r="45.5" stroke="#EC7979"/></svg>