<svg width="40" height="39" fill="none" xmlns="http://www.w3.org/2000/svg"><path d="M14.33 37.39a19.38 19.38 0 0 0 19.23-4.63 18.4 18.4 0 0 0 0-26.52 19.54 19.54 0 0 0-27.1 0A18.55 18.55 0 0 0 .82 19.5c0 7.97 5.12 14.81 12.35 17.51-.18-1.46-.35-3.88 0-5.55l2.2-9.26s-.56-1.09-.56-2.81c0-2.59 1.65-4.52 3.53-4.52 1.65 0 2.42 1.18 2.42 2.7 0 1.61-1.1 3.92-1.65 6.13a2.89 2.89 0 0 0 2.91 3.45c3.41 0 6.06-3.56 6.06-8.59 0-4.5-3.3-7.57-8.03-7.57-5.4 0-8.59 3.94-8.59 8.08a7 7 0 0 0 1.42 4.31c.17.11.17.26.11.55l-.55 2.04c0 .32-.21.43-.54.2-2.45-1.05-3.87-4.46-3.87-7.21 0-5.93 4.3-11.31 12.57-11.31 6.6 0 11.73 4.63 11.73 10.78 0 6.45-4.08 11.63-9.93 11.63-1.85 0-3.68-.98-4.33-2.12l-1.28 4.44a21.93 21.93 0 0 1-2.47 5.06v-.05Z" fill="#CCC"/></svg>