<svg width="39" height="31" fill="none" xmlns="http://www.w3.org/2000/svg"><path d="M34.63 8c.02.32.02.65.02.98 0 9.98-7.76 21.48-21.96 21.48-4.37 0-8.44-1.23-11.86-3.39a15.69 15.69 0 0 0 11.45-3.13 7.85 7.85 0 0 1-4.46-1.49 7.58 7.58 0 0 1-2.76-3.75 8.39 8.39 0 0 0 3.5-.14 7.75 7.75 0 0 1-4.45-2.62 7.45 7.45 0 0 1-1.75-4.79v-.1c1.03.57 2.23.92 3.5.96a7.41 7.41 0 0 1-2.4-10.1 21.88 21.88 0 0 0 7.1 5.61 22.34 22.34 0 0 0 8.82 2.3 7.4 7.4 0 0 1 2.07-7.07A7.73 7.73 0 0 1 26.9.54c2.22 0 4.23.9 5.64 2.38 1.73-.33 3.39-.94 4.9-1.82a7.57 7.57 0 0 1-3.4 4.16c1.54-.17 3.04-.57 4.45-1.17a16.38 16.38 0 0 1-3.87 3.9Z" fill="#CCC"/></svg>